<svg width="24" height="24" viewBox="0 0 24 24" fill="none" xmlns="http://www.w3.org/2000/svg">
<path d="M0 12C0 5.37258 5.37258 0 12 0V0C18.6274 0 24 5.37258 24 12V12C24 18.6274 18.6274 24 12 24V24C5.37258 24 0 18.6274 0 12V12Z" fill="#005FFF"/>
<path fill-rule="evenodd" clip-rule="evenodd" d="M11.1798 7.06047L11.4801 6.82046C11.616 6.71163 11.8165 6.73102 11.9279 6.86377C11.9746 6.91939 12.0001 6.98911 12 7.06104V7.46965V7.47087V7.85428V7.89846V16.1015V16.1458V16.5292V16.5304V16.939C12.0001 17.1106 11.8577 17.2499 11.682 17.25C11.6084 17.25 11.537 17.2251 11.4801 17.1795L11.1798 16.9395L11.1792 16.939L10.8689 16.6909L10.8333 16.6625L8.11182 14.4866L8.11118 14.4866H5.63636C5.28491 14.4866 5 14.2083 5 13.8649V10.1351C5 9.79175 5.28491 9.51343 5.63636 9.51343H8.11118L10.8333 7.33745L10.8696 7.30844L11.1791 7.06104L11.1798 7.06047ZM8.83964 10.4247L10.8333 8.83105V15.1688L8.84036 13.5754L8.52039 13.3195L8.11118 13.3199L8.1101 13.3199L6.16667 13.3199V10.6801H8.11118H8.52017L8.83964 10.4247ZM17.2515 15.5C17.0998 15.5 16.954 15.4417 16.8373 15.3309C16.6098 15.1034 16.6098 14.7359 16.8373 14.5084C16.849 14.4967 17.8348 13.47 17.8348 12C17.8348 10.53 16.849 9.50337 16.8373 9.4917C16.6098 9.2642 16.6156 8.8967 16.8431 8.6692C17.0706 8.4417 17.4381 8.4417 17.6656 8.6692L17.6749 8.67914C17.8022 8.8149 19.0015 10.094 19.0015 12C19.0015 13.906 17.8022 15.1852 17.6749 15.3209L17.6656 15.3309C17.549 15.4417 17.4031 15.5 17.2515 15.5ZM14.504 14.1642C14.6206 14.2751 14.7665 14.3334 14.9181 14.3334C15.0698 14.3334 15.2156 14.2751 15.3323 14.1642C15.3331 14.1633 15.3341 14.1623 15.3351 14.1613C15.4232 14.0666 16.0848 13.3556 16.0848 12.0001C16.0848 10.6292 15.4081 9.91173 15.3323 9.84173C15.1048 9.61423 14.7431 9.61423 14.5156 9.8359C14.2881 10.0576 14.2823 10.4251 14.4981 10.6584C14.5156 10.6759 14.9181 11.1134 14.9181 12.0001C14.9181 12.836 14.5603 13.2727 14.5096 13.3346C14.5066 13.3384 14.5046 13.3407 14.504 13.3417C14.2765 13.5692 14.2765 13.9367 14.504 14.1642Z" fill="white"/>
</svg>
